<?xml version="1.0" standalone="no"?>
<!DOCTYPE svg PUBLIC "-//W3C//DTD SVG 20010904//EN"
 "http://www.w3.org/TR/2001/REC-SVG-20010904/DTD/svg10.dtd">
<svg version="1.0" xmlns="http://www.w3.org/2000/svg"
 width="4096.000000pt" height="4096.000000pt" viewBox="0 0 4096.000000 4096.000000"
 preserveAspectRatio="xMidYMid meet">

<g transform="translate(0.000000,4096.000000) scale(0.100000,-0.100000)"
fill="#000000" stroke="none">
<path d="M10194 27699 c4 -79 12 -187 16 -240 5 -52 12 -180 16 -285 5 -143
10 -193 21 -206 8 -9 58 -33 111 -53 53 -20 112 -43 130 -51 18 -8 37 -14 43
-14 6 0 25 -7 42 -14 34 -16 293 -102 412 -138 39 -11 81 -25 95 -31 14 -5 48
-15 75 -23 28 -7 91 -25 140 -39 50 -14 115 -32 145 -39 30 -8 84 -21 120 -30
113 -28 191 -44 330 -70 246 -46 304 -55 395 -66 50 -6 108 -15 130 -20 22 -4
74 -11 115 -14 158 -13 256 -28 275 -42 20 -15 20 -38 22 -3099 3 -3010 2
-3086 -16 -3104 -12 -12 -40 -21 -82 -26 -35 -3 -118 -13 -184 -20 -327 -38
-855 -86 -1115 -101 -52 -3 -185 -12 -295 -20 -110 -8 -303 -18 -430 -24 -774
-32 -1606 -95 -1805 -136 -125 -26 -143 -40 -100 -79 61 -55 120 -181 120
-256 0 -49 -26 -119 -55 -151 -34 -37 -152 -130 -196 -155 -79 -45 -287 -127
-409 -161 -175 -49 -221 -61 -325 -82 -60 -12 -135 -29 -165 -37 -30 -8 -94
-21 -143 -30 -48 -9 -85 -18 -83 -20 9 -10 2580 -12 2836 -3 371 14 890 39
898 44 4 2 77 9 162 15 298 22 888 95 1223 153 94 16 133 19 145 11 16 -9 17
-156 18 -2147 1 -1663 -2 -2138 -11 -2146 -8 -6 -200 -12 -521 -14 -280 -2
-621 -9 -759 -15 -397 -17 -968 -31 -1278 -31 -329 0 -534 12 -732 41 -188 29
-333 66 -513 133 -52 20 -169 82 -197 106 -11 9 -32 24 -47 33 -50 31 -161
141 -213 212 -68 92 -163 260 -176 310 -5 22 -16 56 -24 75 -17 42 -48 180
-70 310 -40 238 -41 606 -4 982 10 109 19 207 19 218 0 30 -24 24 -53 -12 -53
-70 -169 -176 -221 -202 -50 -25 -63 -28 -138 -24 -72 3 -93 9 -158 42 -41 20
-112 63 -158 94 -45 31 -89 61 -96 66 -31 21 -43 0 -50 -91 -57 -778 -55
-1202 10 -1568 42 -237 121 -472 206 -610 114 -185 241 -323 393 -426 85 -58
222 -135 283 -158 72 -27 173 -63 227 -82 235 -82 704 -160 1130 -189 699 -47
1044 -53 2675 -45 l1435 7 39 26 c21 15 44 36 51 47 11 16 14 505 14 2640 1
1441 1 2626 1 2633 0 13 98 62 160 80 19 6 60 20 90 32 30 12 102 39 160 60
108 40 162 61 217 86 17 8 34 14 38 14 4 0 26 9 49 19 23 11 88 40 146 66 143
63 497 239 593 295 244 141 333 195 457 279 119 80 410 293 441 322 8 8 39 34
69 59 30 24 78 65 106 90 28 25 88 79 134 120 106 95 353 341 490 488 l105
113 1280 0 c1210 -1 1280 -2 1295 -18 9 -10 29 -52 44 -93 26 -68 63 -162 86
-215 11 -26 57 -138 80 -195 10 -25 34 -83 54 -130 19 -47 47 -116 61 -155 26
-69 63 -160 91 -222 8 -17 14 -34 14 -38 0 -4 6 -21 14 -38 14 -30 33 -76 92
-219 14 -35 31 -76 39 -93 7 -16 23 -55 35 -85 12 -30 28 -70 36 -88 21 -49
17 -85 -15 -154 -26 -54 -148 -351 -201 -488 -9 -25 -31 -76 -48 -115 -27 -63
-63 -150 -112 -275 -49 -125 -85 -212 -112 -275 -17 -38 -39 -90 -48 -115 -10
-25 -46 -112 -80 -195 -71 -173 -107 -262 -145 -360 -15 -38 -33 -81 -41 -95
-7 -14 -25 -56 -39 -95 -14 -38 -30 -79 -35 -90 -5 -11 -36 -87 -68 -170 -65
-163 -186 -461 -252 -620 -23 -55 -57 -138 -76 -185 -19 -47 -39 -94 -44 -105
-14 -30 -79 -191 -105 -260 -12 -33 -53 -132 -90 -220 -36 -88 -69 -169 -72
-180 -3 -11 -9 -25 -14 -30 -4 -6 -14 -28 -22 -50 -21 -60 -206 -518 -216
-536 -5 -8 -44 -103 -86 -209 -77 -194 -96 -239 -121 -295 -7 -16 -34 -84 -59
-150 -46 -119 -82 -207 -164 -398 -46 -106 -61 -167 -42 -167 11 0 80 29 281
118 25 11 72 31 105 45 33 14 103 43 156 66 53 23 101 41 107 41 6 0 23 7 39
15 15 8 57 26 93 41 77 31 133 56 195 85 51 25 59 38 148 264 31 77 62 154 70
170 8 17 63 152 122 300 59 149 110 275 114 280 3 6 11 24 17 40 6 17 46 116
89 220 43 105 88 218 101 252 13 34 28 70 34 80 5 10 25 56 44 103 18 47 38
96 44 110 5 14 18 45 28 70 10 25 26 64 36 87 17 39 75 181 103 248 6 17 19
47 28 67 10 21 17 42 17 47 0 6 9 30 20 53 10 24 30 72 44 108 14 36 46 115
71 175 25 61 58 139 72 175 14 36 45 110 68 165 39 91 75 179 125 305 10 25
35 86 55 135 84 202 116 281 140 345 8 19 28 69 45 110 17 41 35 87 39 101 5
14 14 34 20 45 6 10 25 57 41 104 45 131 61 124 126 -50 15 -41 31 -79 35 -85
3 -5 37 -86 74 -180 37 -93 74 -183 82 -200 8 -16 29 -68 48 -115 18 -47 40
-98 49 -115 9 -16 16 -37 16 -46 0 -8 7 -24 15 -35 8 -10 15 -26 15 -34 0 -8
11 -37 25 -65 13 -27 25 -57 25 -65 0 -9 4 -20 9 -25 8 -9 112 -260 148 -360
8 -22 18 -44 22 -50 4 -5 20 -44 35 -85 15 -41 34 -88 41 -105 8 -16 28 -64
45 -105 17 -41 38 -89 46 -107 8 -17 14 -38 14 -46 0 -9 4 -18 9 -22 5 -3 15
-22 21 -43 7 -20 18 -50 25 -67 17 -39 62 -148 85 -205 29 -73 71 -173 86
-207 8 -17 14 -35 14 -41 0 -8 19 -54 61 -147 4 -11 25 -60 45 -110 20 -49 47
-117 61 -150 14 -33 28 -71 33 -85 5 -14 30 -74 55 -135 44 -104 58 -137 104
-252 10 -27 46 -115 81 -198 34 -82 75 -184 92 -225 35 -89 74 -182 94 -227 8
-17 14 -37 14 -45 1 -29 59 -106 86 -112 15 -4 62 -22 103 -41 42 -18 144 -61
226 -95 83 -34 168 -71 190 -81 22 -10 114 -49 205 -88 91 -38 185 -78 210
-89 24 -12 48 -18 52 -16 15 9 8 42 -21 100 -16 33 -72 167 -124 299 -53 133
-103 254 -111 270 -9 17 -16 38 -16 47 0 9 -4 19 -9 23 -5 3 -15 22 -22 43 -6
20 -19 55 -29 77 -10 22 -29 69 -43 105 -14 36 -33 79 -41 95 -9 17 -16 38
-16 47 0 9 -4 19 -9 23 -5 3 -15 22 -21 43 -7 20 -18 51 -26 67 -7 17 -20 48
-27 70 -15 41 -81 204 -97 240 -14 29 -80 194 -95 235 -8 19 -20 49 -29 65 -9
17 -16 35 -16 41 0 6 -15 45 -34 87 -19 41 -46 106 -61 143 -14 38 -32 83 -40
99 -13 27 -59 139 -106 258 -11 26 -28 70 -39 97 -11 28 -28 71 -39 98 -80
201 -122 305 -146 357 -8 17 -26 61 -41 100 -14 38 -32 83 -39 100 -34 78 -87
207 -114 275 -49 124 -111 272 -132 316 -10 22 -19 47 -19 55 0 8 -4 19 -9 25
-5 5 -53 119 -106 254 -53 135 -101 249 -106 255 -5 5 -9 16 -9 25 0 8 -6 26
-13 40 -8 14 -18 39 -24 55 -6 17 -28 68 -47 115 -20 46 -36 89 -36 95 0 5 -7
23 -16 40 -8 16 -27 59 -41 95 -14 36 -34 83 -44 105 -26 56 -158 380 -179
440 -16 46 -66 163 -111 261 -23 50 -24 99 -3 139 9 17 24 53 34 80 18 51 110
275 136 332 7 17 14 35 14 39 0 4 9 26 19 48 18 37 118 279 145 351 6 17 14
35 17 40 4 6 28 64 54 130 26 66 54 134 62 150 19 40 99 243 108 275 4 14 11
30 15 35 8 10 79 183 107 260 8 22 19 44 24 50 5 5 9 15 9 23 0 14 31 91 71
178 10 23 19 45 19 49 0 4 7 21 15 38 22 48 98 236 140 347 7 19 20 49 29 65
9 17 16 36 16 43 0 8 7 26 15 40 13 24 51 114 105 252 56 142 83 209 101 246
10 23 19 45 19 49 0 4 7 21 15 38 20 44 110 266 140 347 7 19 20 49 29 65 9
17 16 36 16 43 0 7 9 30 19 50 11 20 29 62 42 92 12 30 30 73 40 95 9 22 28
69 42 105 26 64 55 136 83 197 8 17 14 37 14 45 0 7 7 27 16 43 9 17 22 46 29
65 39 104 124 314 136 334 6 10 17 35 24 55 33 88 116 295 140 346 7 17 34 82
60 145 25 63 52 129 60 145 7 17 37 90 65 164 29 74 56 142 60 150 16 32 70
171 70 181 0 14 -28 12 -58 -5 -15 -8 -67 -31 -117 -51 -101 -41 -304 -128
-350 -149 -16 -8 -73 -32 -125 -54 -381 -159 -398 -167 -414 -200 -7 -14 -39
-91 -70 -171 -31 -80 -71 -179 -88 -220 -17 -41 -41 -100 -54 -130 -12 -30
-44 -109 -70 -175 -46 -118 -63 -160 -89 -220 -26 -59 -64 -151 -90 -220 -15
-38 -33 -83 -40 -100 -8 -16 -32 -77 -56 -135 -23 -58 -50 -124 -61 -147 -10
-23 -18 -45 -18 -48 0 -3 -17 -47 -38 -98 -43 -103 -104 -251 -152 -372 -54
-135 -160 -397 -186 -457 -13 -32 -36 -86 -50 -120 -14 -35 -29 -72 -34 -83
-49 -111 -70 -166 -70 -177 0 -8 -4 -18 -9 -23 -5 -6 -39 -86 -76 -180 -37
-93 -74 -183 -82 -200 -8 -16 -28 -64 -43 -105 -30 -78 -99 -246 -130 -315
-28 -63 -191 -474 -211 -534 -11 -30 -24 -60 -30 -67 -16 -20 -49 -17 -55 4
-7 19 -47 126 -68 182 -18 46 -64 157 -82 197 -8 17 -14 34 -14 38 0 4 -9 26
-19 49 -11 23 -32 72 -47 111 -14 38 -32 83 -39 100 -7 16 -25 59 -40 95 -14
36 -30 74 -35 85 -11 24 -75 182 -100 245 -41 104 -92 227 -105 257 -8 17 -15
34 -15 38 0 4 -9 26 -19 49 -10 23 -31 70 -46 106 -15 36 -33 79 -40 95 -7 17
-25 62 -39 100 -15 39 -33 82 -41 97 -8 14 -15 31 -15 38 0 7 -6 26 -14 43
-19 41 -44 100 -66 157 -68 174 -132 329 -145 352 -8 14 -15 32 -15 40 0 7 -7
27 -16 43 -9 17 -21 46 -29 65 -18 50 -73 189 -91 228 -8 19 -31 75 -50 125
-20 51 -39 97 -42 102 -4 6 -12 24 -18 40 -21 56 -282 699 -339 835 -31 74
-59 144 -62 155 -3 11 -9 25 -13 30 -5 6 -26 57 -49 114 -52 133 -60 145 -111
160 -23 7 -83 31 -133 55 -51 23 -108 48 -127 56 -19 7 -53 21 -75 30 -92 41
-125 55 -375 160 -25 10 -74 30 -110 44 -36 14 -79 32 -95 40 -61 32 -88 7
-43 -41 28 -30 14 -48 -26 -33 -48 18 -76 -5 -123 -100 -56 -115 -100 -213
-148 -330 -14 -36 -30 -74 -35 -85 -25 -58 -62 -148 -85 -210 -15 -38 -33 -83
-41 -100 -7 -16 -25 -61 -39 -100 -14 -38 -32 -83 -40 -100 -7 -16 -28 -68
-45 -114 -17 -46 -35 -91 -40 -100 -5 -9 -29 -68 -55 -131 -25 -63 -52 -128
-60 -145 -8 -16 -34 -78 -59 -136 -39 -92 -151 -333 -177 -381 -5 -10 -42 -82
-83 -160 -101 -197 -142 -271 -221 -403 -11 -19 -46 -78 -78 -132 -240 -405
-459 -706 -806 -1107 -137 -158 -438 -452 -656 -640 -241 -208 -622 -463 -985
-659 -68 -36 -190 -81 -250 -91 -23 -4 -43 -1 -54 7 -17 13 -18 131 -17 2982
1 2842 2 2970 19 2988 15 14 51 20 183 32 283 25 481 45 488 49 3 2 51 9 106
16 55 6 136 17 180 25 422 75 416 73 645 131 80 20 163 40 185 45 22 4 119 31
215 59 96 28 207 60 245 70 39 11 102 29 140 40 39 12 89 26 113 32 l42 11 1
176 c1 97 4 320 8 496 4 185 3 328 -2 338 -10 21 -13 20 -97 -13 -98 -38 -322
-116 -450 -157 -115 -37 -157 -49 -350 -103 -36 -10 -96 -28 -135 -39 -38 -11
-88 -23 -110 -27 -22 -3 -47 -10 -56 -15 -18 -9 -177 -44 -296 -64 -44 -7 -98
-18 -120 -23 -34 -9 -185 -33 -483 -78 -52 -8 -151 -19 -220 -24 -69 -6 -168
-15 -220 -20 -164 -17 -673 -23 -915 -12 -238 11 -476 32 -650 57 -55 8 -131
17 -170 20 -38 4 -97 12 -130 20 -33 7 -82 16 -110 19 -92 13 -405 75 -505
101 -30 8 -109 28 -175 45 -66 16 -190 50 -275 75 -85 25 -177 53 -205 61 -27
7 -162 53 -300 100 -137 47 -261 88 -274 91 l-24 6 7 -144z m8507 -3821 c6
-23 17 -51 25 -62 8 -11 14 -27 14 -36 0 -9 9 -33 20 -55 11 -22 20 -44 20
-50 0 -5 7 -23 16 -40 9 -16 31 -69 50 -117 18 -47 40 -101 48 -120 8 -18 28
-67 45 -108 16 -41 59 -147 96 -235 36 -88 70 -172 74 -186 5 -14 14 -34 20
-45 6 -10 35 -80 65 -154 29 -74 58 -146 64 -160 6 -14 32 -79 58 -145 25 -66
55 -137 65 -157 24 -46 24 -75 2 -87 -11 -5 -355 -9 -830 -9 -654 0 -814 2
-823 13 -14 16 -3 44 47 120 32 48 120 191 194 315 5 8 36 65 69 125 33 61 65
117 70 125 24 40 187 376 249 513 11 26 30 66 40 90 11 23 38 87 61 142 78
188 91 220 100 240 5 11 21 52 36 90 15 39 32 73 38 77 16 12 54 -36 67 -84z"/>
<path d="M16467 26793 c-10 -9 -9 -51 2 -57 12 -8 54 41 46 53 -7 12 -38 15
-48 4z"/>
<path d="M24367 25293 c-10 -9 -8 -1016 2 -1031 6 -11 189 -13 957 -12 521 0
952 4 956 8 9 9 23 980 15 1013 l-6 25 -959 2 c-528 1 -962 -1 -965 -5z"/>
<path d="M27680 25156 c0 -13 178 -208 406 -446 192 -199 344 -399 482 -630
43 -73 145 -284 197 -410 15 -36 33 -79 40 -97 56 -129 183 -567 231 -793 97
-454 158 -929 156 -1220 -1 -192 5 -283 18 -275 5 3 11 20 15 38 7 35 50 169
65 202 5 11 31 72 59 135 180 414 398 706 654 873 118 77 141 90 242 130 132
53 230 74 420 93 144 14 186 14 273 3 77 -9 106 -9 114 -1 7 7 10 13 7 15 -2
1 -47 24 -99 51 -168 86 -478 283 -710 451 -58 41 -514 405 -565 450 -16 14
-90 79 -164 143 -74 64 -178 155 -231 202 -149 131 -337 290 -399 339 -149
116 -403 302 -466 341 -38 24 -86 53 -105 65 -67 43 -156 94 -180 105 -40 17
-171 89 -304 168 -107 62 -156 84 -156 68z"/>
<path d="M31935 22313 c-308 -25 -509 -73 -820 -196 -58 -23 -272 -135 -331
-173 -32 -21 -67 -43 -76 -49 -115 -68 -274 -202 -440 -371 -153 -156 -271
-315 -385 -519 -49 -89 -123 -240 -123 -252 0 -4 -9 -25 -19 -47 -36 -77 -86
-243 -119 -396 -95 -431 -82 -836 41 -1285 16 -60 43 -141 58 -180 16 -38 29
-73 29 -77 0 -14 106 -226 158 -317 154 -267 354 -504 582 -690 250 -204 535
-364 815 -458 157 -53 191 -61 380 -93 231 -40 465 -48 685 -25 261 27 431 68
708 169 90 33 274 128 386 199 11 7 43 26 70 43 142 88 326 244 454 383 192
209 293 352 416 586 36 67 166 383 166 401 0 5 11 45 24 89 68 228 91 403 91
690 0 340 -37 560 -142 850 -14 39 -34 93 -44 122 -26 75 -130 281 -203 402
-129 211 -349 455 -597 661 -188 156 -531 338 -789 418 -36 11 -90 28 -120 37
-207 64 -597 100 -855 78z"/>
<path d="M24376 20277 c-17 -12 -18 -45 -17 -517 1 -277 5 -508 10 -513 4 -4
972 -8 2151 -8 1757 0 2145 2 2152 13 11 16 5 1014 -6 1025 -4 4 -967 9 -2140
10 -1736 3 -2136 1 -2150 -10z"/>
<path d="M29197 18134 c-4 -4 -7 -109 -7 -234 0 -411 -80 -988 -202 -1450 -16
-63 -32 -126 -35 -140 -8 -41 -92 -310 -120 -385 -14 -38 -32 -87 -39 -108 -8
-20 -18 -45 -24 -55 -5 -9 -23 -51 -41 -92 -48 -115 -143 -302 -193 -380 -103
-161 -132 -202 -254 -360 -46 -59 -111 -131 -220 -244 -58 -60 -163 -172 -234
-249 -157 -171 -168 -203 -47 -132 33 19 63 35 66 35 3 0 44 22 92 49 47 27
106 60 131 73 25 14 61 35 80 47 19 11 46 26 60 33 21 10 121 69 215 128 35
22 199 134 205 140 3 3 28 20 55 39 58 40 224 171 309 245 33 28 130 112 215
186 86 74 188 162 226 194 39 32 106 91 149 130 44 39 98 87 120 107 72 63
387 312 529 418 260 193 617 419 775 491 34 16 62 33 62 38 0 6 -68 8 -174 4
-191 -5 -403 10 -481 35 -178 56 -234 80 -350 146 -67 38 -187 130 -243 186
-44 43 -171 190 -189 219 -10 15 -20 29 -23 32 -37 35 -260 444 -260 477 0 5
-20 50 -56 128 -8 17 -28 77 -44 135 -31 105 -41 126 -53 114z"/>
<path d="M24372 15258 c-14 -14 -18 -1004 -4 -1026 7 -10 206 -12 963 -10
l954 3 5 505 c3 278 1 513 -3 523 -7 16 -62 17 -955 17 -724 0 -951 -3 -960
-12z"/>
</g>
</svg>
